<svg viewBox="0 0 1024 1024" xmlns="http://www.w3.org/2000/svg" class="block h-9 w-auto fill-current text-gray-800">
    <g transform="translate(0 1024) scale(.1 -.1)">
        <path d="m3952 9500c-23-10-54-32-68-47-51-56-54-74-54-377 0-316 3-332 73-393 73-64 176-66 255-6 68 51 72 73 72 396 0 264-2 291-19 325-27 51-57 81-105 103-52 24-100 24-154-1z"></path>
        <path d="m6132 9499c-51-26-95-76-111-128-14-48-15-531-1-582 52-186 294-214 378-44 24 48 25 56 28 309 2 162 0 275-7 301-18 67-55 114-112 141-64 29-119 30-175 3z"></path>
        <path d="m3241 9060c-176-46-311-181-360-360-21-74-21-89-21-1530 0-1583-2-1513 56-1636 35-74 120-164 192-202 117-62 112-62 814-62 351 0 638-4 638-9 0-19-110-152-199-242-225-224-516-376-816-424-176-29-415-17-593 30-403 107-741 362-920 695-123 228-172 470-172 849v188l68 12c137 25 307 133 408 259 58 74 136 233 169 346 29 102 30 115 12 159-12 29-11 43 20 152 18 66 53 210 78 320 111 495 112 692 8 829-43 56-141 126-213 152-36 13-52 25-61 45-15 38-64 74-150 110-86 37-135 39-184 9-71-44-94-140-52-215 18-33 37-48 117-87 103-52 154-59 215-34 89 37 219-71 240-200 9-55-17-234-65-464-55-256-128-540-145-565-8-11-22-29-30-41-8-11-27-61-41-109-40-140-88-231-158-301-95-95-212-143-346-144-188 0-357 105-443 276-19 38-49 114-67 168-22 67-43 111-65 135-30 32-38 57-83 251-87 370-133 631-134 751 0 91 20 136 81 192 56 50 106 64 175 47 73-17 125-7 212 41 130 72 168 145 122 237-17 35-34 53-68 70-56 29-108 24-198-18-88-41-122-67-138-106-9-21-21-34-33-34-10 0-50-16-88-35-131-65-214-182-231-324-19-157 34-483 147-906 35-132 39-159 34-225-4-66-1-87 27-175 96-300 302-509 562-570l76-18 5-266c5-304 23-430 83-610 158-475 542-852 1048-1030 237-84 556-113 791-73 277 48 522 152 742 316 149 111 334 321 447 509l47 77h490 489v155 155h-1207-1207l-44 21c-52 25-103 76-129 127-17 35-18 96-21 1191-2 1066-1 1156 14 1173 17 17 85 18 1939 18 1849 0 1923-1 1938-18s17-75 17-630v-612h155 155v885c0 607-3 901-11 937-36 172-175 324-348 379-56 18-98 22-277 27l-212 4-4-158c-3-135-7-166-25-206-30-66-96-133-162-165-47-24-69-28-136-28-69 0-88 4-138 29-67 34-120 89-151 155-18 40-21 69-24 209l-4 162h-778-778l-4-162c-3-155-4-166-31-220-55-111-153-173-277-173-121 0-221 61-278 169-25 48-27 60-30 219l-4 167-201-1c-166 0-215-4-276-19z"></path>
        <g fill="#a00">
            <path d="m5047 7849c-425-45-798-365-914-784-26-92-28-114-27-275 0-145 4-190 21-261 121-484 541-809 1043-809 166 0 308 32 443 101 58 29 210 130 204 135-1 1-34-4-72-13-109-24-301-21-404 6-236 62-428 222-537 447-153 314-120 658 88 935 105 140 230 227 407 285 141 47 264 54 410 25 58-11 106-19 108-17 8 7-144 100-222 137-103 48-205 76-325 89-106 11-113 11-223-1z"></path>
            <path d="m7e3 6694c-311-56-526-166-728-373-164-168-268-364-319-601-25-118-24-390 1-510 77-360 318-679 637-845 168-87 398-145 575-145 585 0 1095 419 1214 996 81 392-17 768-279 1069-168 193-403 332-660 391-64 15-387 28-441 18zm335-259c301-53 547-224 691-481 153-273 171-596 51-882-120-282-368-493-679-574-68-18-110-22-233-21-130 0-163 4-248 27-109 29-252 97-336 159-316 233-465 649-371 1035 121 500 617 825 1125 737z"></path>
            <path d="m7099 6221-29-29v-274l-1-273-30-30c-39-38-49-63-49-127 0-108 74-188 174-188h50l161-160c143-141 165-160 194-160 46 0 101 55 101 101 0 28-20 52-165 199-161 163-165 168-165 209 0 48-17 85-54 120l-26 24v280 279l-29 29c-22 21-39 29-66 29s-44-8-66-29z"></path>
            <path d="m6390 5537c-32-16-54-61-46-93 9-33 63-66 96-59 39 10 64 40 64 80 0 60-62 99-114 72z"></path>
            <path d="m7109 4769c-30-30-23-95 13-122 73-54 162 58 95 121-30 28-80 29-108 1z"></path>
            <path d="m3434 3696c-96-31-165-117-190-237-12-58-15-119-12-279 4-183 7-211 27-263 49-126 137-194 265-204 184-15 328 98 344 269l5 58h-90-91l-7-37c-11-58-31-89-71-108-64-30-131-6-167 60-20 36-22 59-25 232-5 262 16 331 110 352 74 17 141-35 154-121l7-38h90 90l-7 46c-17 125-61 200-146 248-49 27-64 31-150 33-60 2-110-2-136-11z"></path>
            <path d="m5830 3701c-50-16-89-41-128-86-68-77-75-110-80-360-5-256 4-328 51-406 116-192 434-179 537 21 15 29 40 130 40 162 0 4-40 8-89 8h-89l-7-41c-22-132-184-159-239-40-18 40-21 70-24 222-5 215 6 279 53 326 29 29 40 33 83 33 41 0 55-5 80-28 17-16 33-41 36-55 3-15 8-38 11-52 5-24 8-25 92-25h86l-5 58c-12 122-84 222-185 256-49 17-178 20-223 7z"></path>
            <path d="m542 3215 3-485h87 88l2 315 3 316 43-143c24-79 59-194 79-256l35-113 142 6 44 145c24 80 59 197 77 260l34 115 1-322v-323h85 85v485 486l-116-3-117-3-80-279c-45-153-83-273-86-265s-39 133-82 279l-77 265-254 6 4-486z"></path>
            <path d="m1520 3215v-485h245 245v80 80h-155-155v125 125h130 130v85 85h-130-130v110 110h150 150v85 85h-240-240v-485z"></path>
            <path d="m2140 3216v-486h178c200 0 235 7 314 65 34 25 55 52 80 102l33 68v245c0 230-1 248-22 300-31 77-74 124-141 157-56 27-62 28-249 31l-193 4v-486zm358 289c51-43 62-96 62-293 0-199-8-240-57-282-31-28-40-30-108-30h-75v315 315h74c65 0 78-3 104-25z"></path>
            <path d="m2910 3698c0-2-1-220-3-486l-2-482h93 92v485 485h-90c-49 0-90-1-90-2z"></path>
            <path d="m4175 3678c-45-195-190-812-204-870l-19-78h93 93l24 103 23 102 117 3 116 3 11-53c6-29 16-77 23-105l11-53h95c71 0 93 3 90 13-3 6-56 225-119 485l-114 472h-117c-114 0-118-1-123-22zm167-391c20-95 37-175 38-179 0-5-36-8-81-8-79 0-81 1-76 23 3 12 20 95 39 184 18 89 35 160 37 157 3-3 22-82 43-177z"></path>
            <path d="m4769 3696c-2-2-3-221-1-485l2-481h235 235v80 79l-145 3-146 3 1 403v402h-88c-49 0-91-2-93-4z"></path>
            <path d="m6380 3215v-485h245 245v80 80h-155-155v125 125h130 130v85 85h-130-130v110 110h150 150v85 85h-240-240v-485z"></path>
            <path d="m7e3 3215v-485h85 85l2 310 3 310 123-310 124-310h104 104v485 485h-90-91l3-315c2-173 0-315-3-315s-13 24-22 53c-9 28-64 169-121 312l-104 260-202 6v-486z"></path>
            <path d="m7760 3615v-85h100 100v-400-400h90 90v400 400h100 100v85 85h-290-290v-85z"></path>
            <path d="m8470 3215v-485h240 240v80 80h-150-150v125 125h130 130v85 85h-132-133l6 220h150 149v85 85h-240-240v-485z"></path>
            <path d="m9100 3215v-485h90 90v171 170l94-6 34-90c19-49 47-125 64-167l30-78h100c76 0 99 3 95 13-74 176-148 359-145 361 49 29 85 68 107 115 23 49 26 69 26 161 0 97-2 110-31 170-22 47-42 73-71 93-69 48-119 57-310 57h-173v-485zm330 312c46-16 70-63 70-140 0-68-19-119-52-141-12-8-56-18-95-22l-73-7v162 161l58-1c31 0 73-5 92-12z"></path>
        </g>
        <path d="m2395 2351c-71-17-126-74-150-153-21-72-21-315 0-387 21-69 84-135 145-151 115-31 220 10 268 103 52 99 53 386 3 485-45 89-152 130-266 103zm114-127c41-29 51-72 51-224 0-120-3-146-20-179-10-21-26-41-35-45-57-21-118 11-135 72-15 56-13 286 4 326s51 66 86 66c14 0 36-7 49-16z"></path>
        <path d="m6687 2345c-99-35-149-144-117-254 15-53 56-88 162-142 53-27 102-58 108-68 30-57-4-111-70-111-49 0-87 32-97 81-6 31-7 31-51 25-25-3-51-6-60-6-24 0-10-92 21-139 41-61 76-76 183-76 81 0 94 3 131 27 104 69 111 246 12 321-19 14-68 42-111 61-90 43-102 56-101 104 3 93 132 97 151 4 4-18 10-33 15-33 4 1 32 1 63 1h57l-7 41c-8 49-36 107-64 132-48 44-152 59-225 32z"></path>
        <path d="m7678 2350c-79-24-128-98-128-194 0-105 32-142 192-219 61-30 78-43 87-67 20-59-14-100-84-100-47 0-85 36-85 81v32l-62-7c-35-4-65-9-67-12-2-2 1-29 8-60 27-120 155-182 294-143 117 32 168 175 104 291-24 43-62 71-165 118-78 36-92 51-92 99 0 41 31 71 73 71 40 0 66-25 76-70 3-17 9-31 14-31 4 1 32 1 62 1 50 0 55 2 55 23 0 74-47 148-115 178-42 19-120 23-167 9z"></path>
        <path d="m790 2344c0-3-18-74-39-158-22-83-58-229-81-325-23-95-44-179-47-187-4-11 9-14 65-14h70l13 73 14 72 87 3 86 3 11-51c6-28 11-62 11-75 0-24 2-25 70-25 49 0 70 4 70 13 0 6-37 162-82 345l-82 332h-83c-46 0-83-3-83-6zm114-282c14-67 26-127 26-132 0-6-26-10-59-10h-58l13 58c7 31 20 92 29 135 10 43 19 77 20 75 2-2 15-58 29-126z"></path>
        <path d="m1220 2005v-345h64 64v78c0 42 0 92 1 110l1 32h63c141 0 227 87 227 229 0 83-14 132-47 172-48 56-91 69-240 69h-133v-345zm247 210c31-22 46-83 34-136-13-57-31-72-96-79l-55-6v118 118h48c27 0 57-7 69-15z"></path>
        <path d="m1730 2005v-345h65 65v110 110h48c72 0 145 25 181 62 62 64 80 203 37 293-45 97-87 115-266 115h-130v-345zm258 202c45-48 34-168-18-194-14-7-44-13-67-13h-43v115 115h53c43 0 58-5 75-23z"></path>
        <path d="m2810 2005v-345h65 65v345 345h-65-65v-345z"></path>
        <path d="m3060 2005v-345h60 60l1 223 1 222 22-50c12-27 56-128 97-222l74-173h68 67v345 345h-65-65l-1-207v-208l-29 70c-16 39-55 131-87 205l-59 135-144 6v-346z"></path>
        <path d="m3600 2290v-60h75 75v-285-285h65 65v285 285h80 80v60 60h-220-220v-60z"></path>
        <path d="m4130 2005v-345h65 65l1 233v232l19-65c10-36 35-120 56-188l37-123 112 6 33 110c19 61 44 144 55 185l22 75 3-232 2-233h65 65v345 345h-90c-49 0-90-2-90-4 0-4-107-351-115-375-3-8-8-12-10-9-3 2-31 90-63 194l-59 189-86 3-87 3v-346z"></path>
        <path d="m4850 2005v-345h175 175v60 60h-110-110v85 85h94c52 0 97 3 99 8 2 4 2 31-1 60l-4 52h-94-94v80 80h110 110v60 60h-175-175v-345z"></path>
        <path d="m5300 2005v-345h60 60l2 221 3 220 94-220 94-221h68 68l6 690h-62-63v-217c0-212-5-238-29-163-6 19-44 112-85 205l-73 170-72 3-71 3v-346z"></path>
        <path d="m5838 2290-3-60h78 77v-285-285h60 60v285 285h75 75v60 60h-209-209l-4-60z"></path>
        <path d="m7020 2342c0-4 34-89 76-187 108-256 104-242 104-376v-119h65 65v128 127l90 215c50 118 90 216 90 218s-32 2-71 0l-71-3-50-135c-27-74-51-136-52-138-2-1-11 19-21 45-9 27-33 90-52 141l-35 92h-69c-38 0-69-4-69-8z"></path>
        <path d="m8020 2290v-60h75 75v-285-285h65 65v285 285h78 78v60l-1 60h-217-218v-60z"></path>
        <path d="m8540 2005v-345h175 175v60 60h-112-113v85 84l200 6 3 58 3 57h-106-105v80 80h115 115v60 60h-175-175v-345z"></path>
        <path d="m8990 2005v-345h60 60v222c0 122 2 219 5 217 2-3 28-81 58-174l54-170h58 59l55 184 56 185 3-232 2-232h60 60v345 345h-90c-75 0-90-3-90-16 0-15-75-261-103-339-16-43-17-42-40 40-8 28-34 110-57 183l-42 132h-84-84v-345z"></path>
    </g>
</svg>